<svg version="1.1" id="Layer_1" xmlns="http://www.w3.org/2000/svg" xmlns:xlink="http://www.w3.org/1999/xlink" x="0px" y="0px"
	 width="100%" viewBox="0 0 720 400" enable-background="new 0 0 720 400" xml:space="preserve">
<path fill="#000000" opacity="1.000000" stroke="none" 
	d="
M274.082886,125.829979 
	C289.719116,136.101974 294.129852,151.000641 291.969238,168.131073 
	C289.944092,184.187134 280.909058,195.952194 265.500305,200.739365 
	C246.190491,206.738525 226.828461,199.194244 218.590652,178.638611 
	C210.141769,157.556335 217.451202,131.837479 239.829376,122.876152 
	C251.468201,118.215408 262.932526,118.885262 274.082886,125.829979 
M250.839737,126.143768 
	C241.855667,126.662788 236.405960,132.177353 233.496277,139.863693 
	C228.058899,154.227203 228.390915,168.872833 233.825806,183.208557 
	C235.784683,188.375443 239.082764,192.829391 244.482635,195.239090 
	C257.998993,201.270767 272.922974,193.218018 276.587158,177.850388 
	C279.138855,167.148361 279.293396,156.318314 276.396759,145.785126 
	C273.534119,135.375610 268.150024,124.694618 250.839737,126.143768 
z"/>
<path fill="#000000" opacity="1.000000" stroke="none" 
	d="
M354.455627,168.553146 
	C357.035522,171.524689 359.379089,174.231750 361.722687,176.938828 
	C362.090637,176.826981 362.458618,176.715134 362.826599,176.603287 
	C362.826599,173.183914 362.826385,169.764526 362.826630,166.345154 
	C362.827362,156.019501 362.853699,145.693756 362.820343,135.368210 
	C362.797150,128.186966 361.971680,127.177277 355.023804,125.658867 
	C353.705444,125.370743 352.150391,125.368706 352.275330,123.522118 
	C352.376282,122.030319 353.750122,121.832230 354.917450,121.824791 
	C362.409668,121.777054 369.902252,121.772942 377.394653,121.790855 
	C378.462677,121.793404 379.296844,122.319275 379.664612,123.408096 
	C379.638763,124.971947 378.468170,125.122856 377.299866,125.414246 
	C370.454163,127.121635 369.325562,128.465454 369.273682,135.704239 
	C369.187714,147.694717 369.236420,159.686188 369.231171,171.677231 
	C369.227600,179.837830 369.270386,187.998795 369.196686,196.158737 
	C369.179565,198.058884 370.002991,200.655533 367.704163,201.523331 
	C365.382660,202.399689 364.309570,199.905319 363.106995,198.443207 
	C348.724731,180.956802 334.392609,163.429214 320.041504,145.917160 
	C319.101410,144.770020 318.113922,143.661728 317.165405,142.555115 
	C315.418701,143.266830 316.071228,144.626007 316.066711,145.620392 
	C316.003662,159.443008 315.968750,173.266068 316.010529,187.088745 
	C316.032074,194.214783 317.060547,195.410538 324.001892,197.071976 
	C325.315063,197.386292 326.803558,197.593643 326.677979,199.388229 
	C326.596832,200.547928 325.529999,201.048767 324.506897,201.047882 
	C316.523499,201.040970 308.539825,200.988724 300.557587,200.865509 
	C300.048553,200.857651 299.550507,200.140320 299.078003,199.776642 
	C299.508545,196.709183 301.929413,197.241211 303.733490,196.950714 
	C306.726501,196.468765 308.640991,195.035217 308.967285,191.877182 
	C309.223053,189.402191 309.696625,186.928711 309.708008,184.452896 
	C309.776947,169.464355 309.751495,154.475296 309.735565,139.486450 
	C309.727173,131.592224 307.086945,128.260925 299.369720,125.970505 
	C297.856903,125.521515 295.958466,125.808037 294.935120,124.180618 
	C294.743500,122.569260 295.745087,122.077827 296.998260,121.897400 
	C297.818115,121.779358 298.656586,121.776031 299.487610,121.752029 
	C315.977539,121.275734 315.981750,121.273239 326.494049,134.189377 
	C335.741364,145.551270 344.977966,156.921906 354.455627,168.553146 
z"/>
<path fill="#000000" opacity="1.000000" stroke="none" 
	d="
M347.425293,237.327621 
	C344.373413,249.020996 337.864105,259.043701 335.008148,270.293610 
	C331.120178,285.608704 329.361938,301.359863 327.323486,317.025177 
	C327.064819,319.013092 327.077606,320.997253 328.263977,322.813110 
	C329.366791,324.501129 328.684082,325.977386 327.476013,327.322144 
	C326.625305,328.269104 325.593658,328.716644 324.349213,328.357208 
	C322.353790,327.780792 321.876801,326.016205 322.003601,324.386292 
	C322.531830,317.594788 323.082764,310.794647 323.981781,304.045166 
	C324.966431,296.652710 326.343567,289.312561 327.710022,280.970825 
	C325.732666,283.579712 324.378510,285.534546 322.850128,287.342041 
	C320.751373,289.824066 318.267853,292.301575 314.773438,290.809662 
	C311.494324,289.409698 310.858215,286.114777 310.999542,282.774109 
	C311.032806,281.988373 311.162506,281.206787 311.302948,279.917053 
	C306.361084,281.802704 301.399078,281.712677 297.644989,285.878754 
	C294.405792,289.473450 290.283752,288.523651 287.566467,284.457550 
	C286.659332,283.100128 286.019806,281.563843 285.270203,280.132721 
	C273.218872,284.516235 272.706329,284.367218 268.809143,274.944916 
	C267.377319,277.760040 266.155304,280.239532 264.862671,282.681641 
	C263.669220,284.936340 262.350189,287.359772 259.251740,286.566589 
	C256.313385,285.814301 255.950256,283.134216 255.730118,280.581848 
	C255.617340,279.274200 255.601471,277.958160 255.510071,275.948181 
	C251.093033,280.262787 249.468842,285.561829 246.626343,290.073090 
	C245.520645,291.827942 244.721420,294.670044 242.045288,293.753876 
	C239.146210,292.761353 240.116669,289.979156 240.514923,287.702728 
	C241.982956,279.311493 244.286926,271.165070 247.606781,263.311310 
	C248.274704,261.731201 248.997391,259.837982 251.060196,260.566681 
	C253.456635,261.413239 252.656677,263.505432 252.032455,265.241150 
	C250.582474,269.273102 249.069092,273.282196 248.113327,277.581085 
	C250.205261,274.486572 252.260986,271.366638 254.407104,268.310150 
	C255.257568,267.098938 256.223206,265.724213 258.026978,266.311707 
	C259.690521,266.853516 260.157501,268.327698 260.178772,269.909027 
	C260.220917,273.041351 260.191223,276.174622 261.109131,279.585022 
	C262.856384,276.153839 264.461700,272.639282 266.408691,269.325439 
	C267.435547,267.577698 268.418030,265.010803 271.097351,265.596466 
	C273.468292,266.114777 273.231934,268.639526 273.813293,270.503662 
	C274.603729,273.038330 272.818695,276.986176 276.403381,277.883087 
	C279.533905,278.666351 281.680206,275.613159 283.918976,273.666656 
	C287.171387,270.838867 290.344910,267.913666 293.694794,265.206543 
	C297.021332,262.518280 300.000702,263.332733 301.426514,267.396149 
	C302.448822,270.309570 302.984283,273.393799 303.739655,276.412720 
	C307.219910,276.572449 309.457947,274.847839 311.544159,272.951263 
	C313.513702,271.160706 315.469482,269.318787 317.181763,267.288971 
	C320.798035,263.002167 324.802765,260.278351 330.945587,263.480133 
	C333.260406,254.804062 335.502441,246.519699 337.675323,238.217224 
	C339.282990,232.074417 341.531250,226.172470 344.309845,220.480484 
	C345.170624,218.717148 346.247192,216.651031 348.734436,217.200027 
	C351.603821,217.833374 351.315796,220.345047 351.213013,222.480118 
	C350.969543,227.536942 348.922882,232.164536 347.425293,237.327621 
M319.644836,272.228394 
	C317.488678,276.245361 315.129456,280.221832 316.790100,285.244751 
	C323.793121,280.881561 328.007751,271.975647 325.328156,267.497101 
	C322.784485,267.856018 321.467407,269.800781 319.644836,272.228394 
M290.442963,276.653534 
	C290.146118,278.322083 290.143463,279.950165 291.297607,281.339813 
	C292.714966,283.046478 294.250946,282.824738 295.334869,281.137390 
	C296.473694,279.364471 293.371979,276.092102 290.442963,276.653534 
z"/>
<path fill="#000000" opacity="1.000000" stroke="none" 
	d="
M615.608032,120.053902 
	C618.937439,120.837784 621.945129,121.307747 624.702087,122.406662 
	C628.858765,124.063484 632.721497,125.382088 635.354004,120.295639 
	C638.640808,123.180321 639.232056,142.473068 636.546082,147.445633 
	C633.614685,147.334579 634.048157,144.889954 633.611572,143.108414 
	C630.911621,132.089630 623.236694,125.925087 612.674072,126.192871 
	C607.486328,126.324387 603.630737,128.640839 601.599976,133.302780 
	C599.530945,138.052444 601.238281,142.622635 606.103699,146.334625 
	C613.544556,152.011520 622.145020,155.797485 630.013733,160.786057 
	C634.728516,163.775085 638.890808,167.179001 641.144165,172.531921 
	C647.613525,187.899963 634.558960,201.263367 622.290222,202.211288 
	C616.126892,202.687485 610.004883,202.475021 604.097473,200.142578 
	C600.057007,198.547302 595.832153,196.882629 592.886536,202.111221 
	C590.055603,198.303238 589.997864,178.887451 592.582703,175.326263 
	C595.098694,176.259354 594.947693,178.660904 595.463440,180.651901 
	C598.464478,192.235886 609.440308,199.165237 621.008911,196.502457 
	C625.597656,195.446274 629.414124,192.895309 630.599915,188.012314 
	C631.937317,182.505005 630.419983,177.631973 625.587769,174.422653 
	C620.743347,171.205261 615.602600,168.436249 610.621094,165.422302 
	C607.205444,163.355789 603.721924,161.372253 600.474487,159.062378 
	C591.482727,152.666794 588.358704,144.426804 591.071228,134.861420 
	C593.357300,126.800034 602.339844,120.471481 612.178711,120.009163 
	C613.174683,119.962357 614.175476,120.015022 615.608032,120.053902 
z"/>
<path fill="#000000" opacity="1.000000" stroke="none" 
	d="
M534.310730,131.359406 
	C535.371399,128.865891 536.219238,126.693901 537.168152,124.567009 
	C537.882996,122.964836 537.988770,120.626747 540.314514,120.530525 
	C542.644653,120.434105 543.030273,122.678757 543.718689,124.298035 
	C548.207092,134.855774 552.653625,145.431381 557.092407,156.010132 
	C561.273682,165.975021 565.433655,175.948807 569.593262,185.922760 
	C571.828552,191.282654 574.486450,196.197525 580.898865,197.515945 
	C581.381958,197.615295 581.723145,198.404907 582.067444,198.801208 
	C581.463013,201.283707 579.599182,201.052017 578.013062,201.067032 
	C570.520813,201.137970 563.027710,201.157700 555.535217,201.126022 
	C553.951416,201.119324 551.795776,201.477890 551.605957,199.154037 
	C551.441345,197.138000 553.522583,197.212357 554.860718,196.765305 
	C558.237854,195.637070 559.217529,193.435959 557.956299,190.156082 
	C557.837219,189.846329 557.772400,189.516144 557.672607,189.198517 
	C553.270874,175.189468 553.270752,175.191925 538.792480,175.237289 
	C535.628845,175.247208 532.435486,175.506409 529.308289,175.167114 
	C524.382202,174.632629 521.459106,176.594086 519.936218,181.234909 
	C518.953613,184.229416 517.368713,187.034042 516.479065,190.049271 
	C515.427368,193.613663 516.343872,196.348480 520.659790,196.824081 
	C522.311035,197.006042 524.381348,197.113297 524.148071,199.415939 
	C523.947266,201.398590 521.952209,201.134445 520.524658,201.148468 
	C514.531372,201.207413 508.537170,201.194458 502.543518,201.162247 
	C501.222900,201.155151 499.642761,201.163712 499.278442,199.532837 
	C498.895599,197.819000 500.357391,197.233963 501.649078,196.884720 
	C505.808929,195.759872 507.834076,192.543839 509.387421,188.967163 
	C517.671509,169.892441 525.896179,150.791916 534.310730,131.359406 
M526.275452,167.096222 
	C526.088684,168.387512 526.773132,168.939133 527.951904,168.977127 
	C533.927124,169.169724 539.902100,169.416901 545.879028,169.490646 
	C548.864502,169.527466 549.043396,167.820663 548.032227,165.473770 
	C545.665710,159.981400 543.393494,154.448486 541.053894,148.944382 
	C540.065552,146.619232 539.720886,143.903946 536.968384,141.765625 
	C533.330139,150.303177 529.892334,158.370285 526.275452,167.096222 
z"/>
<path fill="#000000" opacity="1.000000" stroke="none" 
	d="
M154.876282,141.982025 
	C151.052811,154.005981 149.683746,165.710983 153.726257,177.629044 
	C157.573135,188.970383 165.588989,195.072250 177.257141,196.305206 
	C187.175262,197.353241 195.000671,193.150360 201.278076,185.656219 
	C202.785629,183.856476 203.717453,181.229279 206.620728,181.115387 
	C208.622192,183.238235 206.921600,184.640640 206.069778,186.123032 
	C192.541794,209.665619 153.998764,207.694778 141.950821,183.135162 
	C132.053802,162.960190 137.616302,133.044632 161.415070,123.205124 
	C171.763214,118.926712 182.116470,118.631577 192.417252,123.370613 
	C195.737946,124.898361 198.878754,126.392204 201.172928,121.764557 
	C202.014908,120.066139 204.312744,119.973068 204.532959,121.839775 
	C205.526657,130.263092 206.821564,138.726318 205.043686,147.836594 
	C199.729324,135.601868 192.934402,125.540810 178.126953,125.704887 
	C173.614304,125.754898 169.219254,126.566406 165.258606,129.048035 
	C160.399521,132.092621 157.260727,136.474899 154.876282,141.982025 
z"/>
<path fill="#000000" opacity="1.000000" stroke="none" 
	d="
M485.993286,187.997864 
	C488.453979,185.385941 490.001434,182.316086 493.000244,180.871841 
	C495.009094,182.260925 494.554443,183.607666 493.677948,184.974762 
	C487.005524,195.381592 478.168762,201.715912 465.214172,202.476715 
	C443.800323,203.734314 431.622162,191.618790 426.447479,177.406815 
	C420.192963,160.228989 425.779053,138.292130 439.834259,128.067032 
	C451.743744,119.402939 465.034546,117.130676 478.998932,123.367767 
	C482.536713,124.947899 485.743958,126.569878 488.075775,121.590446 
	C488.887482,119.857056 491.265686,120.085732 491.453766,121.858398 
	C492.329224,130.110123 493.452576,138.399796 492.931580,146.947372 
	C489.075348,146.370667 489.197540,143.756577 488.397888,141.934418 
	C481.438660,126.076385 464.053864,120.593613 450.457550,130.095642 
	C444.357758,134.358521 441.640869,140.823975 439.920135,147.696976 
	C437.538483,157.209915 437.671875,166.715775 440.053833,176.312988 
	C445.110443,196.686661 471.617889,203.278625 485.993286,187.997864 
z"/>
<path fill="#000000" opacity="1.000000" stroke="none" 
	d="
M414.513824,197.178497 
	C415.987946,197.589645 417.301147,197.746872 417.291107,199.304474 
	C417.284790,200.284103 416.476044,200.881958 415.661713,200.885269 
	C405.235596,200.927750 394.789032,202.068283 384.395966,200.367859 
	C384.179535,200.332458 384.036407,199.849014 383.837463,199.541107 
	C383.977692,197.190582 385.890350,197.104279 387.461884,197.064377 
	C392.973877,196.924423 394.535126,193.461639 394.611237,188.785385 
	C394.719635,182.128082 394.729736,175.468658 394.727386,168.810165 
	C394.723602,157.989822 394.699493,147.169342 394.638733,136.349182 
	C394.591553,127.944275 394.055664,127.311127 385.796600,125.329063 
	C384.970428,125.130783 384.178802,124.924767 383.862213,123.792397 
	C384.041016,121.457283 386.003265,121.803375 387.550323,121.793762 
	C396.372711,121.738960 405.195679,121.749733 414.018341,121.775223 
	C415.478577,121.779442 417.407288,121.564697 417.544525,123.602425 
	C417.692841,125.804268 415.671204,125.512131 414.258606,125.634109 
	C409.155853,126.074776 407.093018,128.823181 407.128937,133.915573 
	C407.258148,152.226074 407.271210,170.538727 407.125397,188.848953 
	C407.085083,193.913132 408.914062,196.804047 414.513824,197.178497 
z"/>
<path fill="#000000" opacity="1.000000" stroke="none" 
	d="
M458.000000,271.129395 
	C440.013275,271.172333 422.526581,271.215149 405.039856,271.256897 
	C403.874176,271.259674 402.707825,271.278656 401.542938,271.247131 
	C399.977112,271.204803 398.357361,270.999695 398.243500,269.020172 
	C398.118256,266.843292 399.754303,266.226013 401.532562,266.096039 
	C403.522675,265.950562 405.525330,265.938049 407.522644,265.934967 
	C477.136414,265.827332 546.750183,265.737823 616.363892,265.605377 
	C621.352295,265.595886 626.339172,265.211792 631.328735,265.140930 
	C633.292969,265.113037 635.834717,265.076965 635.842957,267.833099 
	C635.851624,270.752197 633.227295,270.370026 631.313965,270.324097 
	C605.510986,269.704742 579.724060,271.050537 553.908325,270.654205 
	C522.115417,270.166199 490.303619,270.914825 458.000000,271.129395 
z"/>
<path fill="#000000" opacity="1.000000" stroke="none" 
	d="
M126.605865,201.124725 
	C116.491348,201.127121 106.830101,201.127121 97.078644,201.127121 
	C97.398079,197.001221 99.528061,197.166870 101.245605,197.009521 
	C105.510895,196.618774 107.602768,194.135849 107.619293,190.106216 
	C107.699211,170.620682 107.661743,151.134628 107.634705,131.648788 
	C107.629898,128.187912 105.301926,126.839371 102.365143,125.915771 
	C100.605377,125.362335 98.302773,125.886612 97.136749,123.918861 
	C97.773224,121.365517 99.690659,121.808052 101.230110,121.797867 
	C109.890442,121.740555 118.551323,121.757919 127.211998,121.769112 
	C128.690643,121.771019 130.612198,121.552338 130.728333,123.585266 
	C130.857224,125.840935 128.727661,125.251831 127.383598,125.532852 
	C121.630348,126.735764 120.262131,128.325134 120.246811,134.446152 
	C120.201782,152.433716 120.209358,170.421524 120.246033,188.409134 
	C120.258827,194.685104 121.264473,195.829971 127.395798,197.004517 
	C128.709930,197.256256 130.077469,197.325043 130.727219,198.877991 
	C130.548248,201.253876 128.668381,200.975296 126.605865,201.124725 
z"/>
<path fill="#000000" opacity="1.000000" stroke="none" 
	d="
M106.912224,262.599731 
	C109.994202,261.268158 112.422310,262.116119 115.062180,264.446259 
	C117.609222,252.723633 120.545555,241.893951 123.857697,231.171494 
	C125.135468,227.034912 126.674118,222.987213 129.118576,219.369904 
	C130.090637,217.931442 131.359451,216.772034 133.292252,217.547592 
	C134.931412,218.205322 135.392960,219.706055 135.173065,221.262131 
	C134.756088,224.212860 134.441269,227.232056 133.544479,230.051193 
	C130.421631,239.868195 127.823280,249.915421 123.192444,259.157562 
	C117.708458,270.102386 116.516449,282.042267 114.431602,293.780304 
	C113.242142,300.477112 112.491348,307.253418 111.609772,314.002655 
	C111.224564,316.951752 110.609589,319.936768 112.177338,322.789642 
	C113.107925,324.483063 112.652496,325.990143 111.359169,327.323151 
	C110.335609,328.378113 109.084579,328.918671 107.774940,328.159180 
	C106.143768,327.213257 105.822807,325.407654 105.996994,323.763123 
	C106.906395,315.177643 107.868401,306.595734 108.981140,298.034546 
	C109.684341,292.624298 110.683464,287.252502 111.697289,280.946472 
	C109.619896,283.595917 108.137772,285.663391 106.469711,287.568024 
	C104.458504,289.864532 102.126572,292.241241 98.793037,290.821655 
	C95.418312,289.384521 94.681213,285.860626 95.057884,282.748932 
	C96.049599,274.556183 99.153816,267.354187 106.912224,262.599731 
M100.245560,281.513458 
	C100.284904,282.914612 99.585838,284.453674 100.948936,285.638458 
	C108.006828,280.639160 112.057877,271.844696 109.087883,267.181213 
	C103.974350,270.351166 101.181435,274.887054 100.245560,281.513458 
z"/>
<path fill="#000000" opacity="1.000000" stroke="none" 
	d="
M196.505554,225.380127 
	C194.695618,229.172485 193.339920,232.805817 191.291443,235.994019 
	C183.665207,247.863403 182.893921,261.783722 179.558090,274.892548 
	C176.491669,286.942657 174.541229,299.275330 172.034698,311.470276 
	C171.262741,315.226013 170.809769,318.952301 171.110611,322.813416 
	C171.307205,325.336456 170.889084,328.510925 167.632370,328.314331 
	C164.369934,328.117401 165.155579,325.062134 165.421432,322.752319 
	C167.039581,308.693329 170.242737,294.923981 173.176758,281.115173 
	C176.971893,263.253540 181.024063,245.442810 185.873581,227.831619 
	C187.504532,221.908813 189.481232,216.056686 192.747116,210.789413 
	C193.855316,209.002090 195.272247,206.859924 197.907593,207.988846 
	C200.309967,209.017960 200.347504,211.376755 200.087402,213.588379 
	C199.616531,217.592194 198.085526,221.295670 196.505554,225.380127 
z"/>
<path fill="#000000" opacity="1.000000" stroke="none" 
	d="
M398.734070,69.867508 
	C398.960266,68.020210 399.038269,66.500999 401.481964,65.262497 
	C402.757721,78.309586 410.405060,84.648209 423.666809,85.723274 
	C409.481598,87.059731 401.436920,93.640335 401.039551,108.316628 
	C398.016937,102.629852 398.787750,96.054092 393.767487,91.711922 
	C388.947083,87.542656 382.980988,87.434937 376.980591,85.825531 
	C386.864319,83.873619 396.479614,82.112846 398.734070,69.867508 
z"/>
<path fill="#000000" opacity="1.000000" stroke="none" 
	d="
M343.696167,265.763733 
	C348.665222,260.518860 352.588013,259.772156 356.296326,263.109894 
	C357.443634,264.142517 358.633423,265.292145 357.725952,266.934662 
	C356.751556,268.698212 355.185303,268.207275 353.851929,267.345001 
	C350.629547,265.261169 348.616486,266.804291 346.835693,269.464569 
	C344.891022,272.369659 343.502319,276.220398 342.840576,281.761230 
	C345.655029,277.849365 347.804871,274.786652 350.040710,271.788055 
	C351.023010,270.470642 352.068207,268.954193 354.064697,269.481262 
	C356.126099,270.025482 356.041656,271.860901 356.239166,273.518646 
	C356.573303,276.323364 356.876007,279.139069 357.396973,281.911652 
	C357.727783,283.672119 358.059631,285.781830 360.070862,286.371399 
	C362.188446,286.992157 363.490417,285.227570 364.473297,283.763092 
	C366.782410,280.322296 368.864166,276.728577 371.025208,273.188965 
	C372.054291,271.503357 373.006805,269.080688 375.400665,270.149506 
	C378.127594,271.367096 376.376129,273.559418 375.553253,275.242310 
	C373.064362,280.332275 370.388580,285.333435 366.036316,289.134216 
	C360.787170,293.718231 356.187531,292.624176 353.624237,286.160431 
	C352.775574,284.020386 352.290039,281.736298 351.458008,278.903625 
	C348.971741,281.557983 346.839874,283.976379 344.543121,286.226471 
	C343.376221,287.369659 341.957703,288.541962 340.114136,287.786194 
	C338.135864,286.975250 337.757416,285.190033 337.713684,283.257111 
	C337.568329,276.828003 340.045349,271.286530 343.696167,265.763733 
z"/>
<path fill="#000000" opacity="1.000000" stroke="none" 
	d="
M216.747238,284.661743 
	C213.577164,288.277374 210.955734,292.840546 205.745468,291.732269 
	C200.202927,290.553284 199.940598,285.096497 198.740295,280.653595 
	C198.621262,280.213013 198.395035,279.801361 198.134155,279.172913 
	C195.447922,280.677612 194.307663,283.427338 192.289856,285.299530 
	C190.618225,286.850525 188.848572,288.899261 186.228928,287.358856 
	C183.930435,286.007294 183.541824,283.668243 184.081375,281.207703 
	C185.298553,275.656982 186.806229,270.202332 190.294922,265.559601 
	C194.205399,260.355530 200.732895,259.642548 203.879059,264.015228 
	C204.590088,265.003418 205.245010,266.041656 204.467377,267.198395 
	C203.685028,268.362122 202.397873,268.430908 201.364075,267.715576 
	C196.555313,264.388275 194.287247,267.799042 192.432373,271.274017 
	C190.888382,274.166534 189.976089,277.396240 188.271866,281.800018 
	C192.548035,278.374329 194.398804,274.710388 197.022232,271.742584 
	C198.014969,270.619537 198.843399,269.071045 200.598999,269.566223 
	C202.402328,270.074768 202.140182,271.862885 202.392365,273.323425 
	C202.928970,276.431213 203.336044,279.593872 204.247604,282.596985 
	C205.689194,287.346039 207.883163,287.775330 211.049271,283.835602 
	C213.224228,281.129181 214.864868,277.991760 216.725037,275.034851 
	C217.344925,274.049500 217.830460,272.972626 218.509979,272.033478 
	C219.499146,270.666412 220.685837,269.080994 222.559357,270.373596 
	C224.104980,271.439972 223.412003,273.032684 222.636642,274.397247 
	C220.747086,277.722656 218.852417,281.045135 216.747238,284.661743 
z"/>
<path fill="#000000" opacity="1.000000" stroke="none" 
	d="
M149.007812,271.034668 
	C150.322464,269.490601 151.615204,268.763824 153.070724,270.076019 
	C154.583191,271.439545 153.618744,272.851288 152.750397,274.071198 
	C148.005356,280.737457 142.933594,287.120575 136.176651,291.908936 
	C129.272369,296.801697 122.176956,293.591583 121.615051,285.159271 
	C120.931618,274.903290 124.499046,265.837891 130.445343,257.703339 
	C131.959030,255.632599 134.346237,253.419785 137.264297,255.276962 
	C140.530228,257.355530 138.913300,260.144470 137.649292,262.762604 
	C136.163300,265.840515 133.935043,268.366241 131.348465,270.422485 
	C126.903183,273.956360 126.158226,278.754822 126.228401,283.832947 
	C126.303169,289.242432 129.201752,290.800659 133.655258,287.759277 
	C139.941727,283.466125 144.436600,277.431061 149.007812,271.034668 
z"/>
</svg>